<svg xmlns="http://www.w3.org/2000/svg" version="1.1" xmlns:xlink="http://www.w3.org/1999/xlink" xmlns:svgjs="http://svgjs.dev/svgjs" width="1000" height="1079" viewBox="0 0 1000 1079"><g transform="matrix(1,0,0,1,-0.03420243946698065,0.3299694189603315)"><svg viewBox="0 0 303 327" data-background-color="#fafafa" preserveAspectRatio="xMidYMid meet" height="1079" width="1000" xmlns="http://www.w3.org/2000/svg" xmlns:xlink="http://www.w3.org/1999/xlink"><g id="tight-bounds" transform="matrix(1,0,0,1,0.010363444152517332,-0.10000000000002274)"><svg viewBox="0 0 302.9792732166891 327.2" height="327.2" width="302.9792732166891"><g><svg viewBox="0 0 302.9792732166891 327.2" height="327.2" width="302.9792732166891"><g><svg viewBox="0 0 302.9792732166891 327.2" height="327.2" width="302.9792732166891"><g id="textblocktransform"><svg viewBox="0 0 302.9792732166891 327.2" height="327.2" width="302.9792732166891" id="textblock"><g><svg viewBox="0 0 302.9792732166891 327.2" height="327.2" width="302.9792732166891"><g transform="matrix(1,0,0,1,0,0)"><svg width="302.9792732166891" viewBox="0.800000011920929 -37.150001525878906 34.400001525878906 37.150001525878906" height="327.2" data-palette-color="#2dad9d"><path d="M13.85-3.85L13.85-33.45 7.6-33.2 5.5-22.05 0.8-22.05 1.6-37.15 34.55-37.15 35.2-22.05 30.75-22.05 28.55-33.2 22.5-33.45 22.5-3.85 29.45-3.3 29.45 0 7.5 0 7.5-3.3 13.85-3.85Z" opacity="1" transform="matrix(1,0,0,1,0,0)" fill="#2dad9d" class="undefined-text-0" data-fill-palette-color="primary" id="text-0"></path></svg></g></svg></g></svg></g></svg></g><g></g></svg></g><defs></defs></svg><rect width="302.9792732166891" height="327.2" fill="none" stroke="none" visibility="hidden"></rect></g></svg></g></svg>